<?xml version="1.0" encoding="UTF-8" standalone="no"?>
<!-- Created with Inkscape (http://www.inkscape.org/) -->

<svg
   version="1.1"
   id="svg1"
   width="680.3147"
   height="116.40933"
   viewBox="0 0 680.3147 116.40933"
   xmlns="http://www.w3.org/2000/svg"
   xmlns:svg="http://www.w3.org/2000/svg">
  <defs
     id="defs1" />
  <g
     id="g1">
    <path
       id="path1"
       d="M -255.12128,-56.69362 V 30.6146 h 510.24256 v -87.30822 z"
       style="fill:#404040;fill-opacity:1;fill-rule:nonzero;stroke:none"
       transform="matrix(1.3333333,0,0,-1.3333333,340.15733,40.818667)" />
    <path
       id="path2"
       d="M -226.77448,-28.3468 V 28.3468 H 0 v -56.6936 z"
       style="fill:#ffebb3;fill-opacity:1;fill-rule:nonzero;stroke:none"
       transform="matrix(1.3333333,0,0,-1.3333333,340.15733,40.818667)" />
    <path
       id="path3"
       d="M 0,-28.3468 V 28.3468 H 226.77448 V -28.3468 Z"
       style="fill:#d7b0bc;fill-opacity:1;fill-rule:nonzero;stroke:none"
       transform="matrix(1.3333333,0,0,-1.3333333,340.15733,40.818667)" />
    <path
       id="path4"
       d="M 14.17339,15.59082 H 215.81543"
       style="fill:none;stroke:#000000;stroke-width:1.99255;stroke-linecap:butt;stroke-linejoin:miter;stroke-miterlimit:10;stroke-dasharray:none;stroke-opacity:1"
       transform="matrix(1.3333333,0,0,-1.3333333,340.15733,40.818667)" />
    <path
       id="path5"
       d="M 6.85132,0 C 6.00995,0.21417 2.31152,1.42789 0,2.74866 V -2.74866 C 2.31152,-1.42789 6.00995,-0.21417 6.85132,0 Z"
       style="fill:#000000;fill-opacity:1;fill-rule:nonzero;stroke:#000000;stroke-width:1.99255;stroke-linecap:butt;stroke-linejoin:miter;stroke-miterlimit:10;stroke-dasharray:none;stroke-opacity:1"
       transform="matrix(1.3333333,0,0,-1.3333333,627.91124,20.030907)" />
    <path
       id="path6"
       d="m 11.18456,12.60199 h 5.97766 v 5.97766 h -5.97766 z"
       style="fill:#8c1d40;fill-opacity:1;fill-rule:nonzero;stroke:#000000;stroke-width:1.99255;stroke-linecap:butt;stroke-linejoin:miter;stroke-miterlimit:10;stroke-dasharray:none;stroke-opacity:1"
       transform="matrix(1.3333333,0,0,-1.3333333,340.15733,40.818667)" />
    <path
       id="path7"
       d="M 2.83484,-4.25183 H 215.81543"
       style="fill:none;stroke:#000000;stroke-width:1.99255;stroke-linecap:butt;stroke-linejoin:miter;stroke-miterlimit:10;stroke-dasharray:none;stroke-opacity:1"
       transform="matrix(1.3333333,0,0,-1.3333333,340.15733,40.818667)" />
    <path
       id="path8"
       d="M 6.85132,0 C 6.00995,0.21417 2.31152,1.42789 0,2.74866 V -2.74866 C 2.31152,-1.42789 6.00995,-0.21417 6.85132,0 Z"
       style="fill:#000000;fill-opacity:1;fill-rule:nonzero;stroke:#000000;stroke-width:1.99255;stroke-linecap:butt;stroke-linejoin:miter;stroke-miterlimit:10;stroke-dasharray:none;stroke-opacity:1"
       transform="matrix(1.3333333,0,0,-1.3333333,627.91124,46.487773)" />
    <path
       id="path9"
       d="m 5.82367,-4.25183 c 0,1.65071 -1.33812,2.98883 -2.98883,2.98883 -1.65071,0 -2.98882,-1.33812 -2.98882,-2.98883 0,-1.65071 1.33811,-2.98883 2.98882,-2.98883 1.65071,0 2.98883,1.33812 2.98883,2.98883 z"
       style="fill:#8c1d40;fill-opacity:1;fill-rule:nonzero;stroke:#000000;stroke-width:1.99255;stroke-linecap:butt;stroke-linejoin:miter;stroke-miterlimit:10;stroke-dasharray:none;stroke-opacity:1"
       transform="matrix(1.3333333,0,0,-1.3333333,340.15733,40.818667)" />
    <path
       id="path10"
       d="M 85.04042,-21.2601 H 215.81543"
       style="fill:none;stroke:#000000;stroke-width:1.99255;stroke-linecap:butt;stroke-linejoin:miter;stroke-miterlimit:10;stroke-dasharray:none;stroke-opacity:1"
       transform="matrix(1.3333333,0,0,-1.3333333,340.15733,40.818667)" />
    <path
       id="path11"
       d="M 6.85132,0 C 6.00995,0.21417 2.31152,1.42789 0,2.74866 V -2.74866 C 2.31152,-1.42789 6.00995,-0.21417 6.85132,0 Z"
       style="fill:#000000;fill-opacity:1;fill-rule:nonzero;stroke:#000000;stroke-width:1.99255;stroke-linecap:butt;stroke-linejoin:miter;stroke-miterlimit:10;stroke-dasharray:none;stroke-opacity:1"
       transform="matrix(1.3333333,0,0,-1.3333333,627.91124,69.165467)" />
    <path
       id="path12"
       d="m 85.04042,-17.275 3.45122,-5.97766 H 81.5892 Z"
       style="fill:#8c1d40;fill-opacity:1;fill-rule:nonzero;stroke:#000000;stroke-width:1.99255;stroke-linecap:butt;stroke-linejoin:miter;stroke-miterlimit:10;stroke-dasharray:none;stroke-opacity:1"
       transform="matrix(1.3333333,0,0,-1.3333333,340.15733,40.818667)" />
    <path
       id="path13"
       d="M -226.77448,-26.92937 V 26.92937"
       style="fill:none;stroke:#191404;stroke-width:5.39415;stroke-linecap:square;stroke-linejoin:miter;stroke-miterlimit:10;stroke-dasharray:none;stroke-opacity:1"
       transform="matrix(1.3333333,0,0,-1.3333333,340.15733,40.818667)" />
    <path
       id="path14"
       d="M -226.77448,-26.92937 V 26.92937"
       style="fill:none;stroke:#ffc627;stroke-width:3.4016;stroke-linecap:square;stroke-linejoin:miter;stroke-miterlimit:10;stroke-dasharray:none;stroke-opacity:1"
       transform="matrix(1.3333333,0,0,-1.3333333,340.15733,40.818667)" />
    <path
       id="path15"
       d="M 226.77448,-26.92937 V 26.92937"
       style="fill:none;stroke:#191404;stroke-width:5.39415;stroke-linecap:square;stroke-linejoin:miter;stroke-miterlimit:10;stroke-dasharray:none;stroke-opacity:1"
       transform="matrix(1.3333333,0,0,-1.3333333,340.15733,40.818667)" />
    <path
       id="path16"
       d="M 226.77448,-26.92937 V 26.92937"
       style="fill:none;stroke:#8c1d40;stroke-width:3.4016;stroke-linecap:square;stroke-linejoin:miter;stroke-miterlimit:10;stroke-dasharray:none;stroke-opacity:1"
       transform="matrix(1.3333333,0,0,-1.3333333,340.15733,40.818667)" />
    <path
       id="path17"
       d="m 0,-26.92937 v 7.0867 m 0,8.50412 v 8.50371 m 0,8.50411 v 8.50412 m 0,8.50413 v 4.25185"
       style="fill:none;stroke:#191404;stroke-width:5.39415;stroke-linecap:square;stroke-linejoin:miter;stroke-miterlimit:10;stroke-dasharray:none;stroke-opacity:1"
       transform="matrix(1.3333333,0,0,-1.3333333,340.15733,40.818667)" />
    <path
       id="path18"
       d="m 0,-26.92937 v 7.0867 m 0,8.50412 v 8.50371 m 0,8.50411 v 8.50412 m 0,8.50413 v 4.25185"
       style="fill:none;stroke:#ffc627;stroke-width:3.4016;stroke-linecap:square;stroke-linejoin:miter;stroke-miterlimit:10;stroke-dasharray:none;stroke-opacity:1"
       transform="matrix(1.3333333,0,0,-1.3333333,340.15733,40.818667)" />
    <path
       id="path19"
       d="M -228.1919,28.3468 H 228.1919 M -228.1919,-28.3468 H 228.1919"
       style="fill:none;stroke:#000000;stroke-width:3.9851;stroke-linecap:round;stroke-linejoin:miter;stroke-miterlimit:10;stroke-dasharray:none;stroke-opacity:1"
       transform="matrix(1.3333333,0,0,-1.3333333,340.15733,40.818667)" />
    <path
       id="path20"
       d="m 5.4955156,-13.207031 c 0,-0.433594 -0.023437,-0.445313 -0.3046875,-0.445313 -0.8085937,0.972656 -2.0273437,1.277344 -3.1875,1.3125 -0.058594,0 -0.1640625,0 -0.1875,0.04687 -0.023437,0.04687 -0.023437,0.08203 -0.023437,0.515625 0.6445313,0 1.7226563,-0.117187 2.5429688,-0.621094 v 10.8867193 c 0,0.72656245 -0.035156,0.9726562 -1.8164063,0.9726562 H 1.8978594 V 0 c 0.9960937,-0.0234375 2.0273437,-0.046875 3.0234375,-0.046875 0.984375,0 2.015625,0.0234375 3.0117187,0.046875 V -0.5390625 H 7.3119219 c -1.78125,0 -1.8164063,-0.22265625 -1.8164063,-0.9726562 z m 0,0"
       style="fill:#ffc627;fill-opacity:1;fill-rule:nonzero;stroke:none"
       aria-label="1"
       transform="matrix(1.3333333,0,0,1.3333333,31.477333,107)" />
    <path
       id="path21"
       d="m 5.4946719,-13.206148 c 0,-0.433594 -0.023437,-0.445313 -0.3046875,-0.445313 -0.8085938,0.972656 -2.0273438,1.277344 -3.1875,1.3125 -0.058594,0 -0.1640625,0 -0.1875,0.04687 -0.023437,0.04687 -0.023437,0.08203 -0.023437,0.515625 0.6445312,0 1.7226562,-0.117187 2.5429687,-0.621094 v 10.8867191 c 0,0.72656246 -0.035156,0.97265621 -1.8164062,0.97265621 H 1.8970156 V 8.828125e-4 C 2.8931094,-0.02255469 3.9243594,-0.04599219 4.9204531,-0.04599219 c 0.984375,0 2.015625,0.0234375 3.0117188,0.0468750025 V -0.53817969 H 7.3110781 c -1.78125,0 -1.8164062,-0.22265625 -1.8164062,-0.97265621 z m 16.3623051,8.4140621 h 5.472656 c 0.292969,0 0.632812,0 0.632812,-0.3515625 0,-0.375 -0.328125,-0.375 -0.632812,-0.375 h -5.472656 v -5.4726566 c 0,-0.292968 0,-0.644531 -0.351563,-0.644531 -0.375,0 -0.375,0.339844 -0.375,0.644531 v 5.4726566 h -5.472656 c -0.292969,0 -0.644531,0 -0.644531,0.3515625 0,0.375 0.328125,0.375 0.644531,0.375 h 5.472656 v 5.47265621 c 0,0.29296875 0,0.64453129 0.351563,0.64453129 0.375,0 0.375,-0.32812504 0.375,-0.64453129 z m 0,0"
       style="fill:#ffc627;fill-opacity:1;fill-rule:nonzero;stroke:none"
       aria-label="1+"
       transform="matrix(1.3333333,0,0,1.3333333,311.52533,104.33867)" />
    <path
       id="path22"
       d="m 1.9908672,-3.2693906 c 0.4570312,0.1875 0.9492187,0.1875 1.21875,0.1875 0.375,0 1.125,0 1.125,-0.421875 0,-0.2578125 -0.28125,-0.3515625 -1.0078125,-0.3515625 -0.3632813,0 -0.7851563,0.035156 -1.2890625,0.2578125 -0.4453125,-0.2226563 -0.6210938,-0.5507813 -0.6210938,-0.8671875 0,-0.890625 1.40625,-1.40625 2.6835938,-1.40625 0.2460937,0 0.7617187,0 1.359375,0.4453125 0.09375,0.058594 0.1289062,0.1054687 0.234375,0.1054687 0.1757812,0 0.3632812,-0.1875 0.3632812,-0.3632812 0,-0.2578125 -0.8320312,-0.796875 -1.828125,-0.796875 -1.6054687,0 -3.1289062,0.9609375 -3.1289062,2.015625 0,0.5390625 0.3515625,0.8671875 0.5859375,1.03125 -0.83203126,0.4804687 -1.31250001,1.2539062 -1.31250001,1.9570312 0,0.98437503 0.89062501,1.78125003 2.26171871,1.78125003 1.8984375,0 2.6601563,-1.265625 2.6601563,-1.46484373 0,-0.070312 -0.058594,-0.1289063 -0.1289063,-0.1289063 -0.070312,0 -0.1054687,0.046875 -0.1640625,0.1289063 -0.1523437,0.26953123 -0.5273437,0.84374998 -2.2382812,0.84374998 -0.890625,0 -2.06250001,-0.234375 -2.06250001,-1.24218748 0,-0.4921875 0.36328121,-1.21875 1.28906251,-1.7109375 z m 0.4453125,-0.1757813 c 0.3867187,-0.1289062 0.7617187,-0.1289062 0.8671875,-0.1289062 0.3984375,0 0.46875,0.035156 0.6914062,0.09375 -0.234375,0.1054687 -0.2695312,0.1054687 -0.7851562,0.1054687 -0.2578125,0 -0.4804688,0 -0.7734375,-0.070312 z m 0,0"
       style="fill:#ffc627;fill-opacity:1;fill-rule:nonzero;stroke:none"
       aria-label="ε"
       transform="matrix(1.3333333,0,0,1.3333333,358.13067,93.492)" />
    <path
       id="path23"
       d="M 0,0 H 7.024"
       style="fill:none;stroke:#ffc627;stroke-width:0.398;stroke-linecap:butt;stroke-linejoin:miter;stroke-miterlimit:10;stroke-dasharray:none;stroke-opacity:1"
       transform="matrix(1.3333333,0,0,-1.3333333,357.83067,97.452)" />
    <path
       id="path24"
       d="M 6.3174297,-2.4131797 H 6.0010234 c -0.046875,0.2460938 -0.1640625,1.03125 -0.3046875,1.265625 -0.1054687,0.1289063 -0.9140625,0.1289063 -1.3476562,0.1289063 H 1.6885234 c 0.3867188,-0.328125 1.265625,-1.2421875 1.640625,-1.59375 2.1796875,-2.0039063 2.9882813,-2.7539063 2.9882813,-4.171875 0,-1.6523438 -1.3125,-2.7539063 -2.9765625,-2.7539063 -1.6640625,0 -2.63671876,1.4179688 -2.63671876,2.6484375 0,0.7382813 0.63281246,0.7382813 0.67968746,0.7382813 0.2929688,0 0.6679688,-0.2109375 0.6679688,-0.6796875 0,-0.3984375 -0.2695313,-0.6679688 -0.6679688,-0.6679688 -0.140625,0 -0.1640625,0 -0.2109375,0.011719 0.28125,-0.9726563 1.0546875,-1.6289063 1.9804688,-1.6289063 1.21875,0 1.96875,1.0078125 1.96875,2.3320313 0,1.21875 -0.703125,2.2851562 -1.5234375,3.1992187 L 0.70414844,-0.33896094 V 8.828125e-4 H 5.9424297 Z m 0,0"
       style="fill:#ffc627;fill-opacity:1;fill-rule:nonzero;stroke:none"
       aria-label="2"
       transform="matrix(1.3333333,0,0,1.3333333,357.83067,113.83867)" />
    <path
       id="path25"
       d="m 5.4957656,-13.207031 c 0,-0.433594 -0.023437,-0.445313 -0.3046875,-0.445313 -0.8085937,0.972656 -2.0273437,1.277344 -3.1875,1.3125 -0.058594,0 -0.1640625,0 -0.1875,0.04687 -0.023437,0.04687 -0.023437,0.08203 -0.023437,0.515625 0.6445313,0 1.7226563,-0.117187 2.5429688,-0.621094 v 10.8867193 c 0,0.72656245 -0.035156,0.9726562 -1.8164063,0.9726562 H 1.8981094 V 0 c 0.9960937,-0.0234375 2.0273437,-0.046875 3.0234375,-0.046875 0.984375,0 2.015625,0.0234375 3.0117187,0.046875 V -0.5390625 H 7.3121719 c -1.78125,0 -1.8164063,-0.22265625 -1.8164063,-0.9726562 z m 16.3593754,8.4140623 h 5.472656 c 0.292969,0 0.632812,0 0.632812,-0.3515625 0,-0.375 -0.328125,-0.375 -0.632812,-0.375 h -5.472656 v -5.4726568 c 0,-0.292968 0,-0.644531 -0.351563,-0.644531 -0.375,0 -0.375,0.339844 -0.375,0.644531 v 5.4726568 h -5.472656 c -0.292969,0 -0.644531,0 -0.644531,0.3515625 0,0.375 0.328125,0.375 0.644531,0.375 h 5.472656 v 5.4726562 c 0,0.29296875 0,0.6445312 0.351563,0.6445312 0.375,0 0.375,-0.32812495 0.375,-0.6445312 z m 0,0"
       style="fill:#ff0000;fill-opacity:1;fill-rule:nonzero;stroke:none"
       aria-label="1+"
       transform="matrix(1.3333333,0,0,1.3333333,613.852,107)" />
    <path
       id="path26"
       d="m 2.8709688,-4.7109375 c 0.65625,0.2695313 1.359375,0.2695313 1.7578125,0.2695313 0.5390625,0 1.6054687,0 1.6054687,-0.5976563 0,-0.375 -0.3867187,-0.515625 -1.4414062,-0.515625 -0.515625,0 -1.1367188,0.058594 -1.8632813,0.3632813 C 2.29675,-5.4960937 2.0506563,-5.9765625 2.0506563,-6.421875 c 0,-1.2890625 2.015625,-2.0273438 3.8554687,-2.0273438 0.3515625,0 1.1015625,0 1.96875,0.6445313 0.1171875,0.082031 0.1875,0.140625 0.328125,0.140625 0.2460938,0 0.515625,-0.2695312 0.515625,-0.515625 0,-0.375 -1.1953125,-1.1601563 -2.625,-1.1601563 -2.3085937,0 -4.5,1.3828126 -4.5,2.9179688 0,0.7617188 0.4921875,1.2304688 0.84375,1.4882813 -1.1953125,0.6796875 -1.8984375,1.7929687 -1.8984375,2.8007812 0,1.4296875 1.2773438,2.56640625 3.2578125,2.56640625 2.7304688,0 3.8320313,-1.81640625 3.8320313,-2.10937495 0,-0.1054688 -0.09375,-0.1875 -0.1875,-0.1875 -0.1054688,0 -0.1523438,0.070312 -0.234375,0.1875 -0.2226563,0.3984375 -0.7617188,1.21874995 -3.2226563,1.21874995 -1.2773437,0 -2.9765625,-0.328125 -2.9765625,-1.79296875 0,-0.703125 0.515625,-1.7578125 1.8632813,-2.4609375 z M 3.5155,-4.9570312 c 0.5507813,-0.1875 1.0898438,-0.1875 1.2304688,-0.1875 0.5859375,0 0.6914062,0.046875 1.0195312,0.1289062 -0.3515625,0.1640625 -0.3984375,0.1640625 -1.1367187,0.1640625 -0.375,0 -0.703125,0 -1.1132813,-0.1054687 z m 0,0"
       style="fill:#ff0000;fill-opacity:1;fill-rule:nonzero;stroke:none"
       aria-label="ε"
       transform="matrix(1.3333333,0,0,1.3333333,658.56267,107)" />
    <path
       id="path27"
       d="M 0,9.92155 H -215.81543"
       style="fill:none;stroke:#000000;stroke-width:1.99255;stroke-linecap:butt;stroke-linejoin:miter;stroke-miterlimit:10;stroke-dasharray:none;stroke-opacity:1"
       transform="matrix(1.3333333,0,0,-1.3333333,340.15733,40.818667)" />
    <path
       id="path28"
       d="M 6.85132,0 C 6.00995,0.21417 2.31152,1.42789 0,2.74866 V -2.74866 C 2.31152,-1.42789 6.00995,-0.21417 6.85132,0 Z"
       style="fill:#000000;fill-opacity:1;fill-rule:nonzero;stroke:#000000;stroke-width:1.99255;stroke-linecap:butt;stroke-linejoin:miter;stroke-miterlimit:10;stroke-dasharray:none;stroke-opacity:1"
       transform="matrix(-1.3333333,0,0,1.3333333,52.403427,27.589933)" />
    <path
       id="path29"
       d="m 2.98883,9.92155 c 0,1.6507 -1.33813,2.98884 -2.98883,2.98884 -1.6507,0 -2.98883,-1.33814 -2.98883,-2.98884 0,-1.65071 1.33813,-2.98883 2.98883,-2.98883 1.6507,0 2.98883,1.33812 2.98883,2.98883 z"
       style="fill:#ffc627;fill-opacity:1;fill-rule:nonzero;stroke:#000000;stroke-width:1.99255;stroke-linecap:butt;stroke-linejoin:miter;stroke-miterlimit:10;stroke-dasharray:none;stroke-opacity:1"
       transform="matrix(1.3333333,0,0,-1.3333333,340.15733,40.818667)" />
    <path
       id="path30"
       d="M -85.04042,19.84267 H -215.81543"
       style="fill:none;stroke:#000000;stroke-width:1.99255;stroke-linecap:butt;stroke-linejoin:miter;stroke-miterlimit:10;stroke-dasharray:none;stroke-opacity:1"
       transform="matrix(1.3333333,0,0,-1.3333333,340.15733,40.818667)" />
    <path
       id="path31"
       d="M 6.85132,0 C 6.00995,0.21417 2.31152,1.42789 0,2.74866 V -2.74866 C 2.31152,-1.42789 6.00995,-0.21417 6.85132,0 Z"
       style="fill:#000000;fill-opacity:1;fill-rule:nonzero;stroke:#000000;stroke-width:1.99255;stroke-linecap:butt;stroke-linejoin:miter;stroke-miterlimit:10;stroke-dasharray:none;stroke-opacity:1"
       transform="matrix(-1.3333333,0,0,1.3333333,52.403427,14.361773)" />
    <path
       id="path32"
       d="m -88.02925,16.85384 h 5.97766 v 5.97766 h -5.97766 z"
       style="fill:#ffc627;fill-opacity:1;fill-rule:nonzero;stroke:#000000;stroke-width:1.99255;stroke-linecap:butt;stroke-linejoin:miter;stroke-miterlimit:10;stroke-dasharray:none;stroke-opacity:1"
       transform="matrix(1.3333333,0,0,-1.3333333,340.15733,40.818667)" />
    <path
       id="path33"
       d="M -28.3468,-15.59082 H -215.81543"
       style="fill:none;stroke:#000000;stroke-width:1.99255;stroke-linecap:butt;stroke-linejoin:miter;stroke-miterlimit:10;stroke-dasharray:none;stroke-opacity:1"
       transform="matrix(1.3333333,0,0,-1.3333333,340.15733,40.818667)" />
    <path
       id="path34"
       d="M 6.85132,0 C 6.00995,0.21417 2.31152,1.42789 0,2.74866 V -2.74866 C 2.31152,-1.42789 6.00995,-0.21417 6.85132,0 Z"
       style="fill:#000000;fill-opacity:1;fill-rule:nonzero;stroke:#000000;stroke-width:1.99255;stroke-linecap:butt;stroke-linejoin:miter;stroke-miterlimit:10;stroke-dasharray:none;stroke-opacity:1"
       transform="matrix(-1.3333333,0,0,1.3333333,52.403427,61.606427)" />
    <path
       id="path35"
       d="m -28.3468,-11.60571 3.45122,-5.97766 h -6.90244 z"
       style="fill:#ffc627;fill-opacity:1;fill-rule:nonzero;stroke:#000000;stroke-width:1.99255;stroke-linecap:butt;stroke-linejoin:miter;stroke-miterlimit:10;stroke-dasharray:none;stroke-opacity:1"
       transform="matrix(1.3333333,0,0,-1.3333333,340.15733,40.818667)" />
  </g>
</svg>
